<?xml version="1.0" standalone="no"?>
<!DOCTYPE svg PUBLIC "-//W3C//DTD SVG 20010904//EN"
 "http://www.w3.org/TR/2001/REC-SVG-20010904/DTD/svg10.dtd">
<svg version="1.0" xmlns="http://www.w3.org/2000/svg"
 width="440.000000pt" height="330.000000pt" viewBox="0 0 440.000000 330.000000"
 preserveAspectRatio="xMidYMid meet">

<g transform="translate(0.000000,330.000000) scale(0.100000,-0.100000)"
fill="#000000" stroke="none">
<path d="M2892 3213 c-13 -5 -52 -74 -52 -92 0 -5 -5 -22 -10 -37 l-11 -28
-19 31 c-37 61 -84 77 -140 48 -33 -17 -47 -38 -50 -75 -4 -49 1 -60 60 -133
56 -69 73 -107 51 -107 -5 0 -34 -45 -63 -100 -29 -55 -55 -100 -58 -100 -3 0
-16 17 -29 38 -77 119 -212 234 -349 300 -74 35 -96 41 -107 32 -12 -10 -44
-86 -78 -183 -6 -17 -10 -16 -49 11 -24 16 -74 48 -111 71 l-68 42 -62 -44
c-83 -59 -193 -178 -240 -257 -21 -36 -49 -103 -64 -150 -14 -47 -28 -87 -30
-89 -5 -7 -55 19 -115 60 -32 21 -60 39 -62 39 -14 0 -17 -78 -6 -133 13 -66
38 -122 77 -174 13 -18 22 -33 20 -33 -3 0 -25 11 -48 25 -64 36 -73 32 -42
-22 34 -64 57 -96 120 -170 l53 -62 -23 -17 c-21 -16 -17 -16 26 1 6 2 28 -9
47 -26 24 -21 29 -29 15 -25 -11 3 -60 12 -109 20 l-89 14 7 -142 c4 -77 12
-183 17 -235 10 -87 9 -95 -9 -115 -52 -56 -82 -163 -82 -292 0 -108 7 -129
46 -147 19 -9 34 -24 34 -32 0 -23 29 -76 58 -108 22 -23 24 -31 16 -54 -13
-37 -52 -58 -90 -49 -39 10 -101 77 -144 156 -35 64 -35 65 -38 32 -5 -48 15
-163 39 -228 29 -78 94 -154 151 -178 107 -44 236 29 254 146 4 21 10 38 14
38 5 0 46 -9 92 -19 46 -11 113 -23 151 -27 37 -3 67 -7 67 -9 0 -1 -20 -47
-44 -101 -26 -60 -49 -98 -58 -97 -7 1 -40 13 -73 27 -87 37 -167 36 -226 -4
-75 -49 -139 -159 -125 -214 21 -86 215 -175 379 -176 122 0 305 48 333 88 13
20 15 19 96 -4 45 -13 129 -29 187 -35 90 -10 119 -9 191 4 88 17 194 62 224
96 17 19 17 22 -4 86 -25 74 -72 149 -113 179 -37 27 -121 26 -200 -4 -32 -12
-60 -20 -62 -18 -3 3 26 164 40 225 4 18 20 27 78 44 156 46 279 127 321 210
14 29 26 61 26 70 0 10 19 31 43 47 23 17 53 41 66 55 23 25 23 28 12 102 -14
93 -58 209 -112 294 l-40 64 24 56 c50 113 94 296 112 474 9 79 11 80 120 46
37 -11 69 -18 71 -16 6 5 -68 33 -129 48 l-48 12 3 86 3 86 55 12 55 12 -52
-5 -53 -5 0 136 0 135 39 36 c50 45 76 108 62 148 -14 36 -15 33 18 41 56 12
99 82 81 130 -17 44 -43 48 -116 19 -36 -14 -68 -24 -70 -21 -3 3 1 18 9 34
33 64 27 135 -14 170 -18 14 -60 24 -77 16z m-572 -346 c30 -23 59 -45 64 -49
21 -14 -1 -17 -28 -3 -32 17 -58 19 -71 6 -6 -4 -32 -11 -58 -15 l-48 -6 -20
44 c-10 24 -22 66 -26 92 l-6 48 69 -38 c38 -21 94 -57 124 -79z m-420 -18
c30 -20 63 -46 74 -58 18 -20 18 -21 0 -27 -11 -3 -48 -19 -83 -35 -35 -16
-67 -29 -72 -29 -10 0 -13 183 -3 193 8 7 10 6 84 -44z m335 -80 c-7 -22 -7
-22 26 1 l32 24 33 -38 c36 -42 58 -40 52 5 -7 43 29 38 74 -8 45 -49 58 -88
58 -182 0 -118 0 -118 -79 -123 -51 -4 -82 -13 -135 -42 -38 -20 -74 -36 -81
-36 -6 0 -38 -16 -70 -35 l-59 -36 -47 20 c-66 29 -156 51 -205 51 -45 0 -49
5 -69 94 -7 33 11 128 31 168 24 46 176 112 330 142 104 21 117 20 109 -5z
m564 -82 c23 -21 61 -42 86 -49 l45 -12 -1 -61 c-3 -113 -14 -198 -26 -203 -7
-2 -13 2 -13 10 0 7 -4 19 -9 27 -7 11 -15 10 -40 -9 l-32 -22 8 29 c11 41 7
143 -6 177 -11 26 -13 27 -29 13 -21 -18 -123 -79 -127 -75 -24 29 -21 47 22
156 l46 113 17 -28 c9 -15 36 -45 59 -66z m-172 -288 c27 -10 93 -66 93 -79 0
-16 -45 -26 -72 -16 -20 8 -31 7 -40 -2 -9 -9 -9 -12 0 -12 13 0 17 -30 5 -30
-5 0 -19 -9 -33 -20 l-25 -20 29 10 c16 6 31 8 34 5 10 -10 -18 -55 -35 -55
-15 0 -16 -2 -3 -10 36 -23 -125 -141 -224 -164 l-29 -7 28 33 c39 46 65 106
65 153 0 36 4 43 37 60 43 23 93 97 93 137 0 23 4 28 24 28 14 0 37 -5 53 -11z
m-372 -58 c9 -29 77 -87 120 -102 36 -14 37 -14 31 -57 -7 -51 -27 -93 -73
-149 -34 -42 -35 -43 -98 -43 -89 0 -154 16 -216 53 -57 35 -70 53 -42 60 10
2 6 3 -9 1 -19 -2 -31 4 -42 21 -23 34 -21 36 27 30 33 -4 37 -3 17 4 -14 5
-38 12 -53 15 -32 8 -31 29 1 34 23 4 31 22 9 22 -7 0 -31 -9 -52 -20 -35 -18
-51 -19 -126 -14 l-86 7 7 31 c17 76 75 116 168 116 54 0 145 -22 208 -49 40
-18 44 -18 66 -3 31 23 110 61 125 62 6 0 14 -9 18 -19z m650 -70 c-4 -39 -10
-71 -14 -71 -7 0 -3 116 5 139 11 32 16 -3 9 -68z m-171 -3 c14 -56 9 -65 -41
-71 -27 -3 -49 -4 -50 -4 -1 1 2 17 5 36 5 24 16 37 37 46 41 18 42 18 49 -7z
m-932 -95 c64 -5 69 -8 88 -40 14 -24 16 -35 7 -37 -162 -41 -217 -51 -221
-41 -2 7 -7 37 -11 68 l-7 57 38 0 c22 0 69 -3 106 -7z m933 -25 c-3 -18 -24
-70 -46 -115 -53 -110 -150 -211 -242 -253 -106 -48 -232 -80 -338 -87 l-97
-6 -68 38 c-38 21 -96 66 -129 99 -62 62 -134 182 -119 196 9 8 191 60 210 60
6 0 24 -24 39 -52 84 -156 182 -247 267 -248 42 0 103 61 142 142 31 64 38 71
92 97 79 38 139 83 166 126 22 32 26 35 76 35 l54 0 -7 -32z m145 -70 c-26
-169 -84 -407 -97 -394 -3 3 -14 57 -24 121 l-19 116 40 52 c34 46 74 122 94
181 15 42 18 2 6 -76z m-655 -172 c48 -48 41 -106 -12 -106 -55 0 -168 86
-141 107 21 16 40 21 86 22 33 1 49 -5 67 -23z m-631 -122 c185 -53 389 -146
567 -257 95 -59 96 -60 86 -88 -15 -38 10 -65 68 -73 41 -7 44 -9 50 -45 8
-49 -31 -170 -79 -244 -68 -106 -185 -185 -315 -213 -64 -13 -151 -19 -151 -9
0 2 9 19 20 37 28 46 54 170 47 226 -3 26 -13 110 -21 187 -17 151 -42 291
-57 315 -11 18 -5 -50 22 -240 l20 -135 -23 -19 c-39 -31 -115 -66 -180 -81
-62 -14 -63 -14 -81 8 -26 32 -101 191 -127 267 -12 36 -30 101 -41 145 l-19
80 6 -73 c11 -143 72 -316 149 -423 39 -54 45 -75 18 -64 -72 30 -72 30 -100
9 -15 -12 -32 -35 -37 -53 -8 -28 -6 -35 19 -61 16 -16 37 -32 47 -36 21 -6
25 -34 5 -34 -24 0 -158 49 -192 70 -30 18 -34 27 -41 78 -9 71 9 219 31 263
10 19 26 44 37 55 18 20 18 28 9 124 -11 106 -15 323 -6 332 9 9 172 -21 269
-48z m1133 9 c6 -27 17 -86 23 -133 10 -69 23 -108 71 -205 59 -122 89 -220
89 -289 0 -46 -40 -89 -117 -126 -56 -27 -172 -33 -236 -11 -34 11 -42 22 -82
104 -51 106 -87 238 -67 245 43 14 54 63 22 97 l-21 22 25 17 c38 24 203 213
239 273 18 29 35 53 38 53 3 0 10 -21 16 -47z m-303 -339 c20 -19 20 -25 2
-49 -10 -13 -29 -20 -72 -23 -95 -6 -126 38 -53 75 34 18 104 16 123 -3z"/>
<path d="M2069 2740 c-21 -12 -64 -69 -72 -95 -4 -11 -2 -27 3 -35 7 -11 20
-4 64 38 48 46 59 51 76 42 29 -15 26 5 -5 35 -26 27 -41 30 -66 15z"/>
<path d="M2287 2592 c-32 -35 -16 -92 25 -92 25 0 51 44 42 72 -12 41 -41 49
-67 20z"/>
<path d="M2161 2526 c-15 -16 -21 -33 -19 -52 3 -25 8 -29 36 -32 18 -2 40 2
48 9 30 24 8 99 -30 99 -7 0 -23 -11 -35 -24z"/>
<path d="M2520 2256 c0 -9 7 -16 16 -16 17 0 14 22 -4 28 -7 2 -12 -3 -12 -12z"/>
<path d="M2495 2150 c3 -5 10 -10 16 -10 5 0 9 5 9 10 0 6 -7 10 -16 10 -8 0
-12 -4 -9 -10z"/>
<path d="M2120 2180 c0 -5 7 -10 15 -10 8 0 15 5 15 10 0 6 -7 10 -15 10 -8 0
-15 -4 -15 -10z"/>
<path d="M2050 2090 c0 -5 7 -10 15 -10 8 0 15 5 15 10 0 6 -7 10 -15 10 -8 0
-15 -4 -15 -10z"/>
<path d="M2152 2088 c6 -18 28 -21 28 -4 0 9 -7 16 -16 16 -9 0 -14 -5 -12
-12z"/>
</g>
</svg>
